<svg width="26" height="24" viewBox="0 0 26 24" fill="none" xmlns="http://www.w3.org/2000/svg">
<path d="M14.72 2H6.30855C5.75083 2 5.21596 2.21071 4.8216 2.58579C4.42724 2.96086 4.20569 3.46957 4.20569 4V20C4.20569 20.5304 4.42724 21.0391 4.8216 21.4142C5.21596 21.7893 5.75083 22 6.30855 22H18.9257C19.4834 22 20.0183 21.7893 20.4126 21.4142C20.807 21.0391 21.0285 20.5304 21.0285 20V8L14.72 2Z" stroke="#747474" stroke-width="2" stroke-linecap="round" stroke-linejoin="round"/>
<path d="M14.72 2V8H21.0285" stroke="#747474" stroke-width="2" stroke-linecap="round" stroke-linejoin="round"/>
<path d="M16.8228 13H8.41138" stroke="#747474" stroke-width="2" stroke-linecap="round" stroke-linejoin="round"/>
<path d="M16.8228 17H8.41138" stroke="#747474" stroke-width="2" stroke-linecap="round" stroke-linejoin="round"/>
<path d="M10.5142 9H9.46281H8.41138" stroke="#747474" stroke-width="2" stroke-linecap="round" stroke-linejoin="round"/>
</svg>
